<svg xmlns="http://www.w3.org/2000/svg" viewBox="0 0 276.8 135.6"><defs><style>.a{fill:#fdc400;}.b{fill:#fd9900;}.c{fill:#b0752c;}.d{fill:#b0b0b0;}.e{fill:#aaa;}.f{fill:#010148;}.g{fill:#f8a222;}</style></defs><path class="a" d="M274.08,45.52l.32.06.34.11.31.06.23.28,0,.25c-.06.48-.14,1-.21,1.44-.45,0-.91,0-1.36,0-1.34.1-1.87.57-2,1.72v.45c.73,1.44,2.08,1.92,3.55,2.23l.08.15v1.49l-.08.17c-.51,0-1.05,0-1.56,0a1.73,1.73,0,0,0-1.82,1.68,1.57,1.57,0,0,0,.83,1.63,26,26,0,0,0,2.41,1.23,1.9,1.9,0,0,1,.31.64,10.14,10.14,0,0,1,0,1.35c-.67,0-1.34,0-2,0A1.5,1.5,0,0,0,271.77,62a2.55,2.55,0,0,0,1.41,2.29c.82.51,1.58.81,2.37,1.21v.18c0,.51-.05,1-.07,1.52l-1.69.13A1.7,1.7,0,0,0,272,69q0,2.31,2.94,3.09l.71.3.24.7c.05.39.1.78.14,1.17a17.42,17.42,0,0,0-1.77,0c-1.45.1-2.37.71-2.27,1.76l0,0,0,.24a3.35,3.35,0,0,0,2.36,2.7l1.42.51.17.15v2c-.54,0-1.09,0-1.63,0a1.79,1.79,0,0,0-1.91,1.67,2.29,2.29,0,0,0,.75,2.2A24.88,24.88,0,0,0,275.36,87c.2.14.51.31.51.51a14.24,14.24,0,0,1,0,1.6c-.57,0-1.14,0-1.71,0a2,2,0,0,0-2,1.71,3.24,3.24,0,0,0,2.4,3.4c1.57.49,1.82,1.39,1.64,2.74v.16a23.5,23.5,0,0,0-2.79.23,1.34,1.34,0,0,0-1.08,1.43,3.48,3.48,0,0,0,2.27,3.41.16.16,0,0,0,.14.08l.51.24h0l.13,0c1,.27,1.12,1,1,1.86,0,.3,0,.6-.05.89a17.31,17.31,0,0,0-2.39,0,1.51,1.51,0,0,0-1.48,1.45,3.8,3.8,0,0,0,2.1,3.78l.19.11,1.29.62c.16.22.41.42.44.66a11.61,11.61,0,0,1,.09,1.67l0,.31a17.5,17.5,0,0,0-2.71.06,1.43,1.43,0,0,0-1.4,1.41A4,4,0,0,0,275,119.5l.84.44.35.11.34.06.23.47c0,.7-.07,1.4-.1,2.1a5.32,5.32,0,0,0-1-.15c-2,0-4.12-.15-6.16,0a12.75,12.75,0,0,0-8.84,4.11,3.21,3.21,0,0,0-.37.77h0l-.51.39a11.55,11.55,0,0,0-1.79,4.51c-.14,1.09-.28,2.17-.43,3.26l-.11,0c-.9-.16-1.81-.29-2.72-.48-3.13-.65-6.26-1.33-9.38-2l-17.12-3.6-15.74-3.28c-3.24-.69-6.47-1.42-9.71-2.1l-15-3.1c-5.12-1.06-10.25-2.1-15.37-3.18-3.39-.72-6.78-1.49-10.15-2.21s-7-1.43-10.52-2.16c-3.82-.8-7.61-1.63-11.46-2.44l-18.07-3.77c-4.54-1-9.09-1.86-13.62-2.82-3.87-.81-7.74-1.69-11.61-2.54s-7.59-1.57-11.39-2.35c-4.83-1-9.67-2-14.5-3-3.86-.81-7.72-1.7-11.6-2.53s-7.81-1.6-11.71-2.4L30.63,88.08c-6.24-1.31-12.47-2.66-18.7-4-2-.43-4.06-.8-6.06-1.2l.51-1.29a13,13,0,0,0,2-5,6.33,6.33,0,0,0-.63-4.49l-.17-.23h0a6.18,6.18,0,0,0-2.56-3,15.4,15.4,0,0,0-5-2.25.86.86,0,0,1,.06-.23c.59-1.07,1.19-1.88,2.72-1.77a3.7,3.7,0,0,0,3.7-2.93,2.81,2.81,0,0,0-.38-1,9.38,9.38,0,0,0-1.33-1c.5-1,1-1.8,2.43-1.72A3.7,3.7,0,0,0,11,55.22,4.68,4.68,0,0,0,10.4,54a3.89,3.89,0,0,0-1.19-.63c.47-1,.95-1.8,2.34-1.76a4.07,4.07,0,0,0,3.83-2.32,1.36,1.36,0,0,0-.84-1.81c-.32-.18-.63-.38-.93-.57.46-1,1-1.81,2.35-1.56a2.89,2.89,0,0,0,1.27-.19,2.87,2.87,0,0,0,2.28-2.36,1.33,1.33,0,0,0-.77-1.47c-.3-.17-.6-.35-.9-.51a2.31,2.31,0,0,1,2.37-1.6,3.41,3.41,0,0,0,3.47-2.24c-.11-.38-.11-.86-.36-1.11A6.87,6.87,0,0,0,22,34.91c.43-1,1-1.8,2.26-1.52a1.56,1.56,0,0,0,.57,0,3.21,3.21,0,0,0,2.8-2.13c-.08-.36-.05-.84-.27-1.06a7.46,7.46,0,0,0-1.42-.88c.38-.91.77-1.72,2.06-1.52a3.72,3.72,0,0,0,1.8-.35,2.38,2.38,0,0,0,1.71-1.87c.37-.64,0-1-.5-1.33a7.42,7.42,0,0,0-1.28-.51A2.14,2.14,0,0,1,32,22.2a3,3,0,0,0,3.11-2c.25-1-.4-1.7-1.69-1.77h0V18.3a1.85,1.85,0,0,1,2-1.41,7.19,7.19,0,0,0,2.74-.57c.42-.15.69-.72,1-1.1,0-.29.12-.68,0-.86a2.82,2.82,0,0,0-2.3-1.15A1.88,1.88,0,0,1,39,11.77c1.27,0,2.52,0,3.45-1.06v0l.12-.45a.58.58,0,0,0,.17-.81.66.66,0,0,0-.23-.21,21.48,21.48,0,0,0-2-1A10.74,10.74,0,0,1,41.25,7c.12-.15.48-.17.72-.14A21.08,21.08,0,0,0,54.57,4.7,13.22,13.22,0,0,0,59.22.56,1.1,1.1,0,0,1,60.51.05c4.91.83,9.83,1.58,14.72,2.37,4.13.67,8.26,1.38,12.39,2l17.56,2.83,17.76,2.9c7.2,1.17,14.4,2.31,21.59,3.48l22.84,3.73,20.31,3.28,22.95,3.74,25.45,4.11,23.28,3.77c.43.07.63.23.63.67.08,4.1,2.43,6.8,5.59,8.95a24.25,24.25,0,0,0,7.81,3.42ZM242.74,122l0-.11c.92-.08,1.85-.11,2.76-.25a9.12,9.12,0,0,0,8.07-8.28c.38-3.64.47-7.31.68-11,.17-2.83.33-5.64.48-8.47.23-4.45.44-8.9.66-13.35.16-3.26.33-6.51.51-9.77s.34-6.51.51-9.77c.12-2.69.23-5.37.35-8.06A23.9,23.9,0,0,1,257,50a7.28,7.28,0,0,0-2.09-6.33,13.33,13.33,0,0,0-7.44-4c-3-.61-5.93-1.07-8.89-1.59-3.21-.56-6.41-1.14-9.62-1.68-3.79-.64-7.61-1.25-11.39-1.9-3.19-.55-6.36-1.14-9.54-1.69-4.06-.7-8.12-1.36-12.18-2.06-2.92-.51-5.82-1-8.73-1.52-3.83-.66-7.66-1.28-11.48-1.93-3.15-.54-6.3-1.13-9.46-1.67-4.41-.76-8.82-1.49-13.23-2.24l-11.79-2-11.55-2c-2.41-.42-4.81-.87-7.21-1.28-3.8-.66-7.61-1.29-11.39-1.94-3.18-.55-6.36-1.12-9.54-1.66S95.14,13.5,92,13s-6.47-1.14-9.7-1.71c-4-.69-8-1.36-12-2.07A21.89,21.89,0,0,0,61.77,9c-3.14.67-5.83,2-7.62,4.84-2.32,3.71-4.68,7.39-7,11.07-2.87,4.46-5.76,8.9-8.63,13.36-2.63,4.1-5.22,8.21-7.84,12.31l-10.92,17a3.3,3.3,0,0,0-.55,1.26,6,6,0,0,0,2.59,6,17.48,17.48,0,0,0,6.81,2.82c3.84.84,7.71,1.58,11.56,2.37l15.7,3.28,15.7,3.27,26.53,5.58,14,2.91,14.26,3q8.57,1.8,17.12,3.56l15.71,3.28L178.92,109l18.64,3.91c3.93.83,7.87,1.61,11.81,2.43l10.27,2.16c5.74,1.19,11.48,2.4,17.23,3.55C238.82,121.43,240.79,121.66,242.74,122Z"/><path class="b" d="M242.68,122.26c-2-.3-3.92-.51-5.86-.92-5.75-1.15-11.48-2.36-17.22-3.55-3.43-.72-6.85-1.45-10.28-2.16-3.93-.82-7.87-1.61-11.8-2.43q-9.33-2-18.65-3.92l-19.75-4.17q-7.85-1.65-15.7-3.27l-17.13-3.56-14.27-3L98,92.36,71.46,86.78q-7.84-1.65-15.7-3.27l-15.7-3.28c-3.85-.79-7.72-1.52-11.56-2.37a17,17,0,0,1-6.81-2.81,5.94,5.94,0,0,1-2.59-6,3.42,3.42,0,0,1,.54-1.27q5.45-8.52,10.91-17c2.62-4.1,5.22-8.22,7.84-12.31C41.25,34,44.14,29.6,47,25.14c2.36-3.69,4.73-7.36,7-11.07,1.77-2.84,4.46-4.18,7.61-4.85a21.89,21.89,0,0,1,8.57.23c4,.71,8,1.37,12,2.07,3.23.56,6.46,1.15,9.7,1.7s6.32,1,9.47,1.58,6.36,1.12,9.54,1.66c3.8.66,7.62,1.29,11.4,1.94l7.2,1.29,11.55,2,11.79,2c4.41.75,8.82,1.48,13.24,2.24,3.15.54,6.3,1.12,9.45,1.67,3.83.65,7.66,1.27,11.48,1.92,2.92.51,5.82,1.05,8.73,1.53,4.06.69,8.13,1.36,12.19,2.06,3.17.54,6.35,1.14,9.53,1.68,3.8.65,7.62,1.26,11.4,1.91,3.21.54,6.41,1.11,9.61,1.68,3,.51,6,1,8.9,1.59a13.32,13.32,0,0,1,7.43,4,7.23,7.23,0,0,1,2.09,6.34,21.92,21.92,0,0,0-.19,2.92c-.12,2.69-.23,5.38-.36,8.07q-.24,4.88-.51,9.77c-.17,3.25-.33,6.51-.5,9.76-.22,4.46-.43,8.91-.67,13.36-.14,2.82-.31,5.64-.47,8.46-.21,3.66-.31,7.34-.69,11a9.1,9.1,0,0,1-8.07,8.27c-.91.14-1.84.18-2.75.26ZM22.8,69.11A12.9,12.9,0,0,0,24,71.45c1.56,1.86,3.77,2.63,6,3.18,3.48.85,7,1.56,10.49,2.3,5.81,1.23,11.64,2.43,17.46,3.64,4.4.93,8.8,1.88,13.19,2.82q8.08,1.71,16.17,3.42c4,.85,7.9,1.71,11.86,2.54l13,2.74q8.09,1.71,16.16,3.45c3.85.81,7.7,1.59,11.56,2.4l13.7,2.89c4.23.88,8.45,1.74,12.69,2.65,3.91.82,7.8,1.7,11.68,2.53,3.45.74,6.9,1.45,10.36,2.16L201.89,111c3.08.65,6.15,1.3,9.22,2,.58.14.72,0,.77-.56.21-1.94.43-3.88.7-5.81.45-3.26,1-6.5,1.41-9.74.58-4.34,1.11-8.67,1.69-13,.46-3.41,1-6.81,1.42-10.23.58-4.27,1.11-8.55,1.69-12.82s1.18-8.33,1.76-12.49c.45-3.25.84-6.51,1.37-9.75.13-.84-.11-1.08-.82-1.19-2.47-.39-4.93-.78-7.39-1.2-3.48-.58-7-1.19-10.43-1.78-3.88-.66-7.76-1.31-11.63-2l-17.19-2.92-13.4-2.3-13.39-2.28-16.36-2.79-14.45-2.45-14.35-2.46L85.75,14.32q-6.69-1.15-13.4-2.27c-1.87-.31-3.74-.64-5.63-.82a13.91,13.91,0,0,0-6.47,1,8.18,8.18,0,0,0-4.12,3.05l-4.06,6.49L41.49,38.55c-2.58,4.1-5.16,8.25-7.74,12.37C30.51,56.11,27.24,61.27,24,66.47A24.19,24.19,0,0,0,22.8,69.11Zm231.26-19.8V48.6a1.68,1.68,0,0,0-.09-.32c-1.3-3.94-4.28-5.9-8.16-6.65-3.72-.72-7.48-1.29-11.22-1.92-2.78-.47-5.59-.94-8.34-1.43-.44-.08-.6,0-.64.45-.1,1-.23,1.94-.36,2.91q-.54,4.2-1.1,8.38c-.36,2.8-.74,5.59-1.1,8.4-.41,3.17-.79,6.35-1.19,9.52-.28,2.29-.57,4.58-.85,6.86-.36,2.93-.74,5.86-1.11,8.8-.29,2.31-.57,4.63-.86,6.93-.36,2.91-.73,5.81-1.1,8.72q-.47,3.59-.92,7.18c-.29,2.31-.57,4.62-.87,6.93-.07.51.13.74.64.84l16.48,3.41c3.37.7,6.73,1.57,10.22.87a8.91,8.91,0,0,0,6.38-4.57,10.45,10.45,0,0,0,.9-4.68c.28-4.45.46-8.9.7-13.34.2-3.61.42-7.22.62-10.82q.18-3.25.34-6.51.33-6.39.67-12.78.17-3.09.34-6.18c.21-3.4.4-6.8.62-10.27Z"/><path class="c" d="M260.3,127.63l-.51.4Z"/><path class="a" d="M22.8,69.11A24.19,24.19,0,0,1,24,66.47c3.22-5.2,6.49-10.36,9.73-15.55,2.58-4.12,5.15-8.25,7.75-12.37q5.27-8.38,10.57-16.75l4.06-6.5a8.29,8.29,0,0,1,4.13-3.05,13.74,13.74,0,0,1,6.46-1c1.89.17,3.77.51,5.64.82q6.7,1.09,13.4,2.26l16.75,2.9,14.36,2.45,14.44,2.45,16.36,2.79,13.39,2.28,13.4,2.3,17.17,2.93c3.87.67,7.75,1.32,11.63,2,3.47.59,7,1.2,10.43,1.78,2.46.42,4.92.81,7.38,1.2.72.12,1,.35.83,1.19-.51,3.24-.92,6.5-1.37,9.75-.58,4.16-1.19,8.32-1.76,12.49s-1.11,8.55-1.69,12.83c-.45,3.41-1,6.81-1.42,10.22-.58,4.33-1.11,8.66-1.69,13-.44,3.24-1,6.48-1.41,9.74-.27,1.93-.51,3.87-.7,5.81-.05.51-.19.7-.77.56-3-.68-6.14-1.33-9.22-2l-13.55-2.81c-3.46-.71-6.91-1.42-10.36-2.16-3.9-.83-7.79-1.71-11.68-2.53-4.22-.91-8.44-1.77-12.69-2.65L139.89,98c-3.86-.81-7.71-1.59-11.56-2.4q-8.09-1.72-16.16-3.45l-13-2.74L87.33,86.82q-8.08-1.71-16.17-3.42L58,80.58c-5.81-1.21-11.64-2.41-17.45-3.64-3.5-.74-7-1.45-10.49-2.3-2.26-.55-4.47-1.32-6-3.18A14.77,14.77,0,0,1,22.8,69.11Zm38.05-39.7-.1-.1c.3-2.44.6-4.88.91-7.37l-3.18-.57c-.06.26-.11.46-.14.67-.51,3.33-1,6.67-1.5,10a2,2,0,0,1-.73,1.37c-1.48,1.13-2.89,2.31-4.33,3.48l-1,.83c1,.2,1.9.31,2.73.51a1.26,1.26,0,0,0,1.25-.32Q61.85,32,68.93,26.19l2.85-2.37c-1.89-.61-3.59-1-5,.76a5.8,5.8,0,0,1-1,.83ZM184,64.77a75.41,75.41,0,0,0-2.54,16.56c-1.25-5.21-2.54-10.41-3.68-15.64-.36-1.66-1-2.47-2.77-2.63-2.21-.21-4.39-.75-6.65-1.16-2.51,9.71-5,19.38-7.52,29.14l10,2c1.24-5.46,2.83-10.75,2.9-16.33.12.06.17.11.18.17l3.48,16.87a.82.82,0,0,0,.78.75c1.56.28,3.1.61,4.65.92l4.91.95c1.9-10,3.78-19.89,5.67-29.85ZM69.58,72.89c.11.11.15.16.19.17,2.94.59,5.88,1.15,8.81,1.76.5.1.59-.18.75-.51l10.4-21.83c.73-1.52,1.45-3,2.2-4.64-2.83-.51-5.56-1-8.27-1.52-.56-.11-.76.07-1,.53q-1.9,3.88-3.89,7.73c-.13.26-.51.59-.72.56-1.25-.17-2.49-.44-3.86-.7l4.62-9c-2.74-.5-5.36-.95-8-1.48a1,1,0,0,0-1.25.58v0q-6.48,12-13,24c-.3.56-.57,1.13-.89,1.76L65,72.15c.15-.28.29-.51.41-.75,1.7-3.29,3.39-6.6,5.1-9.87.14-.25.46-.61.63-.58,1.31.19,2.61.47,4,.75-1.91,3.83-3.77,7.53-5.62,11.21Zm29.55,5.84a15.87,15.87,0,0,0,7.56-1.58c6.31-3.22,9.65-8.55,10.61-15.41.69-5-2-8.86-6.78-10.36A16,16,0,0,0,97.08,53C91.78,56.19,89,61.14,88,67.08a9.19,9.19,0,0,0,5.15,10.09,14.38,14.38,0,0,0,6,1.58ZM137,86.35l19,3.73,2-7.38L149.36,81l1.2-4.06,7.65,1.48,1.9-7L152.59,70l1.14-3.88,8.33,1.55,1.77-6.56c-.3-.07-.53-.15-.77-.19L147.25,58c-1.12-.2-1.12-.2-1.46.85q-4,12.4-7.94,24.81c-.27.85-.53,1.71-.83,2.69Zm1.39-20.13a4.43,4.43,0,0,0,.2-.45c.75-2.28,1.49-4.57,2.28-6.81.2-.57,0-.81-.44-1.09a16.39,16.39,0,0,0-6.51-2.27c-4.82-.53-8.89.87-11.84,4.87a6.37,6.37,0,0,0,.07,8.23c.89,1.16,2,2.16,3,3.26a7,7,0,0,1,1.07,1.52,1.44,1.44,0,0,1-.61,1.94l0,0a3.81,3.81,0,0,1-1.61.51,5.66,5.66,0,0,1-4.57-2c-.58-.72-1.13-1.46-1.64-2.23a1.17,1.17,0,0,0-.17.26c-1,2.69-2.06,5.38-3.1,8.07-.18.45,0,.62.37.81a21.93,21.93,0,0,0,7.28,2.54,13.38,13.38,0,0,0,11.34-3.14,8.83,8.83,0,0,0,3.24-7.76A8,8,0,0,0,134,67.88c-.85-.85-1.76-1.63-2.59-2.48a1.74,1.74,0,0,1-.63-1.91,1.9,1.9,0,0,1,1.78-1.09,4.59,4.59,0,0,1,3.92,1.44A27.48,27.48,0,0,1,138.41,66.22ZM65.12,43.7a1.35,1.35,0,0,0-.15-.2,3.24,3.24,0,0,0-.36-.2,18.07,18.07,0,0,0-8.44-1.39A21.31,21.31,0,0,0,37.39,56.49c-1.61,4.67.24,8.84,4.66,10.8a17.29,17.29,0,0,0,8.88,1.13,1.11,1.11,0,0,0,.65-.51C52.82,66,54,64.05,55.26,62.12c.19-.31.37-.62.65-1.06-.77.22-1.35.42-1.95.57a7.9,7.9,0,0,1-4.57,0,3.1,3.1,0,0,1-2.32-3.71,12.12,12.12,0,0,1,7.07-9.19c2.25-1,5.42-.87,7.1,1.65,0,0,.1,0,.21,0ZM210,67.92l-9.6-1.76c-1,6.09-2.08,12.15-3.13,18.25l10,1.92C208.22,80.14,209.1,74.09,210,67.92Zm-62.2-18.2a17.62,17.62,0,0,0,2.32,1.72c3.52,1.75,8.39-.18,10.09-4a6.64,6.64,0,0,0,.31-5.61c-1.32-3-4.84-4.21-8.22-2.95l-1,.39,1.95-5.89-3.42-.59-6,17.31,3.55.66ZM193.6,56.6c-.9-.61-1.71-1.19-2.54-1.71a1,1,0,0,0-.8.07,5.63,5.63,0,0,1-4.23.16,3.35,3.35,0,0,1-2.45-3.56l11.68,2.12A6.87,6.87,0,0,0,194,47c-3-3.55-9.24-3.64-12.3-.1-2.67,3.08-2.65,8.09,1.78,10.53a9.67,9.67,0,0,0,6.67,1,6.68,6.68,0,0,0,3.41-1.79Zm-16-6.15a6.4,6.4,0,0,0-1.08-6.84c-2.8-3-9.94-3.79-13,1.67a6.28,6.28,0,0,0,3.37,9.36,10.13,10.13,0,0,0,5.14.56,7.85,7.85,0,0,0,3.92-1.85c-.76-.51-1.47-1-2.13-1.49a1.06,1.06,0,0,0-1.25-.12,5.17,5.17,0,0,1-4.93-.28,2.72,2.72,0,0,1-1.37-3.05Zm-53-9.65.69.1c3.24.59,6.47,1.19,9.71,1.76.24,0,.66-.06.72-.21,1.18-2.63,1-5.82-2-7.51a8.77,8.77,0,0,0-12.58,5.79,5,5,0,0,0,2.42,5.52,9,9,0,0,0,7.25.77,22.75,22.75,0,0,0,3-1.38c-.82-.6-1.43-1-2-1.47A1,1,0,0,0,130.5,44a5.2,5.2,0,0,1-4.57-.11,2.54,2.54,0,0,1-1.34-3.1Zm76.26,19.92c.38-2,.68-3.87,1.1-5.75a11.75,11.75,0,0,1,1-3,2.85,2.85,0,0,1,3.49-1.2c1.16.39,1.68,1.21,1.53,2.82-.22,1.94-.58,3.87-.88,5.8l-.4,2.5,3.68.67a1.51,1.51,0,0,0,.15-.28c.51-3.12,1-6.23,1.45-9.35a4,4,0,0,0-1.12-3.46,6.12,6.12,0,0,0-6.73-1.23l-.91.35c0-.47,0-.81.06-1.2l-3.58-.65c-.87,4.47-1.74,8.88-2.61,13.36ZM74.12,37.49c4.21-.29,7.28-1.89,9.22-5.29s.28-6.57-3.43-7.3a8.47,8.47,0,0,0-4.57.4A9.57,9.57,0,0,0,69,31.22a4.35,4.35,0,0,0,2.38,5.58A18.19,18.19,0,0,0,74.12,37.49Zm18.27-10c-1-.19-2-.39-2.9-.51a.7.7,0,0,0-.58.27C87.6,29.78,86.2,32.29,85.06,35c-1,2.36.12,4.33,2.6,5a7.4,7.4,0,0,0,8.94-3.43c1.41-2.38,2.54-4.93,3.8-7.4,0-.06,0-.15,0-.24-.31-.07-.6-.14-.89-.19-.75-.11-1.67-.54-2.21-.25s-.79,1.29-1.15,2c-.85,1.65-1.65,3.31-2.54,4.94a3.27,3.27,0,0,1-3.32,1.93,1.64,1.64,0,0,1-1.58-2.45A30.1,30.1,0,0,1,90.07,32c.74-1.52,1.52-3,2.31-4.56Zm102.21,66a13.28,13.28,0,0,0,.56,1.86c1.58,3.36,6.48,4.67,9.64,2.61a4.09,4.09,0,0,0,1.64-5c-1.44-3.71-7.11-5.21-10.15-2.7A4.48,4.48,0,0,0,194.6,93.48ZM109.34,30.54a1.49,1.49,0,0,0-.09.3q.09,6.21.19,12.42a.79.79,0,0,0,.11.45,2.93,2.93,0,0,0,2.63,0l10-10.2c.16-.16.29-.35.51-.62-1-.17-1.89-.37-2.77-.45a1.48,1.48,0,0,0-1,.32c-1.79,1.74-3.55,3.55-5.32,5.3-.18.18-.39.34-.67.6,0-.26,0-.39,0-.51-.06-2.15-.11-4.3-.19-6.45,0-.22-.16-.6-.31-.63-1-.23-2-.39-3-.56Zm-4.78.81a9.84,9.84,0,0,0,4.53-5.71c-.9-.17-1.72-.34-2.54-.46a.72.72,0,0,0-.58.26c-.45.86-.85,1.75-1.29,2.67l1.17.36-2,1.89Z"/><path class="a" d="M254.06,49.33c-.22,3.49-.42,6.87-.62,10.26-.12,2.06-.24,4.13-.34,6.19q-.34,6.38-.68,12.77c-.11,2.17-.21,4.34-.33,6.51-.21,3.61-.43,7.21-.63,10.82-.24,4.45-.41,8.9-.7,13.35a10.4,10.4,0,0,1-.89,4.67,8.88,8.88,0,0,1-6.38,4.57c-3.5.71-6.85-.16-10.22-.86l-16.49-3.41c-.51-.11-.7-.34-.63-.84.29-2.31.57-4.63.87-6.94s.61-4.78.91-7.18L219,90.53c.29-2.31.56-4.62.85-6.94.37-2.93.75-5.86,1.12-8.79.28-2.29.57-4.57.85-6.87q.58-4.76,1.18-9.52c.36-2.8.74-5.58,1.11-8.39s.73-5.59,1.1-8.39c.12-1,.25-1.93.36-2.9,0-.43.19-.51.63-.45,2.78.5,5.56.95,8.34,1.42,3.75.64,7.5,1.21,11.23,1.93,3.88.74,6.85,2.7,8.16,6.65a1.09,1.09,0,0,1,.08.31C254.06,48.88,254.06,49.16,254.06,49.33Zm-17.41,51.06c1.59.48,3.17,1,4.77,1.41a.81.81,0,0,1,.73.88.68.68,0,0,1,0,.14c-.12,1.21-.18,2.43-.26,3.68l1.66.35c.09-1.57.16-3,.28-4.54,0-.51-.15-.71-.62-.85-2.89-.85-5.78-1.74-8.67-2.61a4.77,4.77,0,0,0-.76-.06,6.56,6.56,0,0,0,.66,1c.35.38.8.66,1.12,1.06a1.65,1.65,0,0,1-.71,2.77,3.37,3.37,0,0,1-1,.28,9.61,9.61,0,0,1-6.25-1.41c-1.23-.77-1.7-1.61-1.47-2.49s1.23-1.41,2.6-1.46h1.93a8.87,8.87,0,0,1,0-.93c-1.2,0-2.32-.08-3.41,0a2.71,2.71,0,0,0-2.57,1.82,3,3,0,0,0,1.13,3,5.08,5.08,0,0,0,.51.41,11.16,11.16,0,0,0,5.2,2,7.57,7.57,0,0,0,4.72-.45A2.12,2.12,0,0,0,237,101l-.4-.51A.58.58,0,0,0,236.65,100.39Zm-.89-22.06a17.8,17.8,0,0,1-5.46-1.79,4.88,4.88,0,0,1-1.15-.88,1.2,1.2,0,0,1,.5-2.11,12.27,12.27,0,0,1,2.25-.23l.28-.08c0-.23,0-.46,0-.9a21.39,21.39,0,0,0-3.3.26A2,2,0,0,0,228,76a7.71,7.71,0,0,0,2.35,1.56A31.84,31.84,0,0,0,242.26,80a6,6,0,0,0,1.93-.28,2,2,0,0,0,1.5-2.34,2,2,0,0,0-.4-.83,4.86,4.86,0,0,0-1.08-1.09,10.48,10.48,0,0,0-4.84-1.82,8.27,8.27,0,0,0-4.19.18c-1.74.64-2,2.14-.72,3.42C234.81,77.59,235.2,77.87,235.76,78.33Zm3.83,12.44c-.29.68-.14.93.51,1.06a6.93,6.93,0,0,1,3.86,1.8,1.46,1.46,0,0,1-.6,2.54,3.7,3.7,0,0,1-1.19.23,8,8,0,0,1-5.79-2.23c-1-1-2-2-3-3a10.93,10.93,0,0,0-5.08-2.84c-.25-.06-.51-.09-.81-.14-.23,2.18-.45,4.25-.67,6.37l1.61.25c.18-1.81.36-3.51.54-5.26A6.32,6.32,0,0,1,232,91.36c.91.9,1.74,1.88,2.65,2.77a10.83,10.83,0,0,0,8.74,3.25,2.45,2.45,0,0,0,2.42-1.62,2.54,2.54,0,0,0-1-2.83,11.17,11.17,0,0,0-5.27-2.16Zm-8.16-25.61a9.9,9.9,0,0,1,1.69.85c.84.64,1.6,1.38,2.41,2.07a27,27,0,0,0,3.19,2.65,9.15,9.15,0,0,0,7,1.33,2,2,0,0,0,1-3.56,9.49,9.49,0,0,0-5.23-2.14c-.26.6-.06.81.46.92a6.83,6.83,0,0,1,3.62,1.56,1.24,1.24,0,0,1-.48,2.24,5.22,5.22,0,0,1-2,.21,8.34,8.34,0,0,1-5.27-2.5,35.27,35.27,0,0,0-3.21-2.91A9.11,9.11,0,0,0,230,64c-.2,1.93-.39,3.78-.59,5.66l1.52.23c.16-1.57.31-3.06.49-4.77Zm3-7.21.23-.2c-.18-.19-.37-.55-.55-.55a21,21,0,0,0-3.17.09,2,2,0,0,0-1.79,1.47A2,2,0,0,0,230,61a10.43,10.43,0,0,0,9.17,1.92c1.74-.41,2-1.79.87-3.14l-.27-.4,5.15,1.43c-.07,1.28-.14,2.46-.21,3.67l1.48.21c.1-1.44.18-2.79.27-4.19l-8.81-2.39-.15.2a2.84,2.84,0,0,0,.35.61,7.75,7.75,0,0,0,.66.46c.51.46,1,1,.84,1.75a1.5,1.5,0,0,1-1.49,1.09,19.91,19.91,0,0,1-3.78-.17,5.44,5.44,0,0,1-3.3-1.67,1.19,1.19,0,0,1,.35-2,4.21,4.21,0,0,1,1.4-.37c.62,0,1.25,0,1.87,0Zm-.17-4.47-4.06-.68L230,53c.18.18.33.48.55.51,1.18.26,2.38.45,3.55.67.05,1.36.05,1.36,1.27,1.35.06-.33.12-.67.19-1.09l11.33,2,.19-.24c-.2-.25-.35-.58-.61-.72-3.29-1.74-6.6-3.48-9.92-5.17a10.64,10.64,0,0,0-1.91-.54c-.12,1.3-.25,2.43-.38,3.65ZM245,83.19l-1.56-.27c-.12,1.71-.25,3.35-.37,5.11a44.15,44.15,0,0,0-16.1-7V82a2.85,2.85,0,0,0,.32.1,45.55,45.55,0,0,1,15.5,6.7,6.5,6.5,0,0,0,1.82.57C244.74,87.19,244.86,85.25,245,83.19Z"/><path class="d" d="M268.07,124.38l.29-.07,0,.14-.3.06Z"/><path class="e" d="M268.14,124l.46-.08Z"/><path class="f" d="M184,64.77l9.42,1.73c-1.89,10-3.77,19.86-5.67,29.85l-4.91-.95c-1.62-.32-3.09-.64-4.65-.92a.82.82,0,0,1-.78-.75q-1.71-8.43-3.48-16.87c0-.06-.06-.11-.18-.17-.07,5.58-1.66,10.87-2.9,16.33l-10-2c2.54-9.76,5-19.43,7.52-29.14,2.26.41,4.44,1,6.65,1.16,1.77.16,2.41,1,2.77,2.63,1.12,5.23,2.43,10.43,3.68,15.64A74.84,74.84,0,0,1,184,64.77Z"/><path class="f" d="M69.64,72.67c1.84-3.69,3.71-7.39,5.62-11.2-1.42-.28-2.72-.56-4-.75-.18,0-.51.34-.63.58-1.72,3.29-3.41,6.6-5.11,9.87-.12.24-.26.47-.41.75l-9.36-1.84c.32-.63.6-1.2.9-1.76q6.51-12,13-24a1,1,0,0,1,1.23-.62h0c2.61.51,5.24,1,8,1.49l-4.62,9c1.37.26,2.6.51,3.86.7.21,0,.58-.3.71-.56,1.32-2.56,2.62-5.13,3.9-7.73.22-.45.42-.64,1-.53,2.72.53,5.45,1,8.28,1.52-.76,1.6-1.47,3.12-2.2,4.64L79.37,74.08c-.16.34-.26.62-.76.51-2.93-.6-5.87-1.17-8.8-1.76C69.78,72.83,69.75,72.77,69.64,72.67Z"/><path class="f" d="M99.18,78.51a14.51,14.51,0,0,1-6-1.56A9.17,9.17,0,0,1,88,66.86c1-6,3.8-10.89,9.1-14.07a15.9,15.9,0,0,1,13.43-1.63c4.81,1.5,7.47,5.39,6.79,10.36-.94,6.86-4.3,12.18-10.61,15.4A15.56,15.56,0,0,1,99.18,78.51Zm8.45-18.63c0-2.59-1.57-3.67-3.49-2.65a9.13,9.13,0,0,0-2.54,2.13,17.58,17.58,0,0,0-3.21,6.55A11.64,11.64,0,0,0,98,69.13a1.9,1.9,0,0,0,2.33,2,4.22,4.22,0,0,0,2.29-1.06,17.22,17.22,0,0,0,2.68-3.56A16.84,16.84,0,0,0,107.63,59.88Z"/><path class="f" d="M137,86.36c.3-1,.56-1.84.83-2.69q4-12.4,7.94-24.81c.34-1,.34-1,1.45-.85l15.81,2.91c.24,0,.47.12.78.2l-1.77,6.56-8.34-1.55L152.58,70l7.53,1.44-1.9,7L150.56,77,149.36,81l8.63,1.7-2,7.38Z"/><path class="f" d="M138.41,66.22a26.41,26.41,0,0,0-1.94-2.4,4.56,4.56,0,0,0-3.92-1.44,1.89,1.89,0,0,0-1.78,1.09,1.75,1.75,0,0,0,.63,1.91c.84.85,1.75,1.63,2.6,2.48a8,8,0,0,1,2.67,4.65,8.8,8.8,0,0,1-3.23,7.76,13.4,13.4,0,0,1-11.34,3.14,22,22,0,0,1-7.29-2.54c-.35-.19-.55-.36-.37-.81,1-2.69,2.07-5.38,3.11-8.07a.9.9,0,0,1,.17-.26A25,25,0,0,0,119.36,74a5.64,5.64,0,0,0,4.56,2,3.81,3.81,0,0,0,1.61-.51,1.43,1.43,0,0,0,.67-1.92l0,0a6.91,6.91,0,0,0-1.06-1.52c-1-1.1-2.07-2.1-3-3.26a6.37,6.37,0,0,1-.06-8.23c2.94-4,7-5.4,11.84-4.87a16.45,16.45,0,0,1,6.5,2.3c.47.27.64.51.44,1.08-.79,2.26-1.52,4.54-2.28,6.81A4.32,4.32,0,0,1,138.41,66.22Z"/><path class="f" d="M65.17,43.46l-3.72,6.7c-.11,0-.19,0-.21,0-1.67-2.54-4.84-2.69-7.1-1.65a12.11,12.11,0,0,0-7.07,9.19,3.09,3.09,0,0,0,2.32,3.7,7.9,7.9,0,0,0,4.57,0c.6-.15,1.18-.35,1.95-.57-.28.45-.46.76-.65,1.07-1.22,1.93-2.44,3.87-3.68,5.78a1.07,1.07,0,0,1-.65.51A17.18,17.18,0,0,1,42.05,67c-4.42-2-6.27-6.13-4.66-10.81A21.33,21.33,0,0,1,56.17,41.63,18.3,18.3,0,0,1,64.63,43a2.5,2.5,0,0,1,.35.21A.66.66,0,0,1,65.17,43.46Z"/><path class="f" d="M210,67.92c-.9,6.17-1.78,12.22-2.69,18.41l-10-1.92c1.05-6.09,2.09-12.15,3.13-18.25Z"/><path class="f" d="M147.79,49.72l-.42,1.08-3.55-.66c2-5.82,4-11.52,6-17.31l3.43.59-1.95,5.89,1-.39c3.38-1.26,6.9,0,8.22,2.95a6.68,6.68,0,0,1-.31,5.61c-1.7,3.78-6.57,5.71-10.09,4A18.21,18.21,0,0,1,147.79,49.72Zm5.05-.86a4.49,4.49,0,0,0,4.42-4.43c0-1.88-1.52-3.17-3.7-3.16a4.37,4.37,0,0,0-4.36,4.39v.05C149.22,47.57,150.73,48.87,152.84,48.86Z"/><path class="f" d="M193.6,56.6a6.68,6.68,0,0,1-3.41,1.79,9.67,9.67,0,0,1-6.73-1C179,55,179,50,181.69,46.88c3-3.55,9.25-3.45,12.29.11,1.68,1.95,1.88,4.19,1.22,6.67l-11.67-2.12A3.32,3.32,0,0,0,186,55.09a5.61,5.61,0,0,0,4.22-.16,1.08,1.08,0,0,1,.81-.07C191.89,55.41,192.7,56,193.6,56.6ZM192,50.34a3.88,3.88,0,0,0-3.63-3.15,3.77,3.77,0,0,0-4,1.78Z"/><path class="f" d="M177.57,50.45l-11.33-2.06a2.73,2.73,0,0,0,1.37,3,5.17,5.17,0,0,0,4.93.28,1.05,1.05,0,0,1,1.25.12c.66.5,1.37,1,2.14,1.49A7.92,7.92,0,0,1,172,55.18a10.08,10.08,0,0,1-5.13-.56,6.28,6.28,0,0,1-3.37-9.36c3-5.46,10.21-4.71,13-1.67A6.37,6.37,0,0,1,177.57,50.45Zm-3-3.26a3.5,3.5,0,0,0-3.23-3.08c-1.81-.27-3.65.48-4.2,1.73Z"/><path class="f" d="M124.59,40.79a2.54,2.54,0,0,0,1.31,3.09,5.2,5.2,0,0,0,4.57.11,1,1,0,0,1,1.24.17c.57.46,1.17.87,2,1.47a24,24,0,0,1-3,1.38,9,9,0,0,1-7.26-.77,5,5,0,0,1-2.42-5.52,8.78,8.78,0,0,1,12.59-5.79c3,1.69,3.22,4.88,2,7.51-.07.15-.51.25-.72.21-3.24-.57-6.48-1.17-9.72-1.76ZM133,39.64a2.75,2.75,0,0,0-2.08-2.77,4.57,4.57,0,0,0-5.08,1.46Z"/><path class="f" d="M200.85,60.72l-3.78-.7c.88-4.47,1.74-8.88,2.62-13.35l3.58.65c0,.39,0,.73-.06,1.2l.9-.35a6.14,6.14,0,0,1,6.74,1.23A4,4,0,0,1,212,52.86c-.44,3.12-1,6.23-1.45,9.35a1.51,1.51,0,0,1-.15.28l-3.69-.67.4-2.5c.3-1.93.67-3.86.88-5.8.18-1.61-.34-2.43-1.52-2.82A2.85,2.85,0,0,0,203,51.9a11.78,11.78,0,0,0-1,3.05C201.51,56.86,201.21,58.75,200.85,60.72Z"/><path class="f" d="M74.17,37.25a18.5,18.5,0,0,1-2.73-.69A4.35,4.35,0,0,1,69.06,31a9.6,9.6,0,0,1,6.32-5.92,8.48,8.48,0,0,1,4.57-.4c3.72.73,5.3,4,3.43,7.3S78.38,37,74.17,37.25Zm1.17-3a5.48,5.48,0,0,0,5.07-3.78,2.25,2.25,0,0,0-1.31-2.9,2.79,2.79,0,0,0-.39-.1A5.28,5.28,0,0,0,73,30.17C71.71,32.41,72.77,34.23,75.34,34.25Z"/><path class="f" d="M92.44,27.21c-.8,1.56-1.58,3.05-2.33,4.57a31.47,31.47,0,0,0-1.36,2.88,1.64,1.64,0,0,0,1.58,2.44,3.25,3.25,0,0,0,3.32-1.92c.88-1.63,1.69-3.29,2.54-4.94.36-.7.58-1.67,1.15-2s1.46.13,2.21.25c.29,0,.58.12.89.18,0,.1,0,.18,0,.25-1.25,2.47-2.39,5-3.8,7.4a7.41,7.41,0,0,1-8.94,3.43c-2.48-.71-3.61-2.67-2.6-5C86.24,32.08,87.64,29.55,89,27a.69.69,0,0,1,.58-.26C90.48,26.83,91.4,27,92.44,27.21Z"/><path class="f" d="M194.6,93.48a4.54,4.54,0,0,1,1.67-3.3c3.08-2.51,8.74-1,10.15,2.7A4.11,4.11,0,0,1,204.78,98c-3.16,2.06-8.07.74-9.65-2.62A12.8,12.8,0,0,1,194.6,93.48Z"/><path class="f" d="M60.9,29.17l5-4a5.8,5.8,0,0,0,1-.83c1.39-1.75,3.1-1.36,5-.75L69,26q-7.08,5.85-14.15,11.73A1.26,1.26,0,0,1,53.6,38c-.83-.21-1.69-.33-2.73-.5.42-.37.7-.61,1-.84,1.44-1.17,2.86-2.35,4.33-3.48a1.93,1.93,0,0,0,.73-1.37q.77-5,1.5-10c0-.21.08-.41.14-.67l3.18.57c-.31,2.49-.61,4.93-.91,7.38v.17Z"/><path class="f" d="M109.35,30.31c1,.17,2,.32,3.05.54.14,0,.3.4.31.63.1,2.14.16,4.3.24,6.44,0,.13,0,.26.06.51.27-.26.47-.42.66-.6,1.75-1.78,3.5-3.58,5.28-5.34a1.49,1.49,0,0,1,1-.33c.88.08,1.75.27,2.77.43-.22.28-.35.47-.5.63l-10,10.26a3.07,3.07,0,0,1-2.63,0,.76.76,0,0,1-.12-.46l-.27-12.41A1.8,1.8,0,0,1,109.35,30.31Z"/><path class="f" d="M104.62,31.08l-.75-1,2-1.89-1.17-.36c.44-.92.83-1.81,1.28-2.67a.74.74,0,0,1,.59-.26c.83.12,1.65.29,2.54.46A9.77,9.77,0,0,1,104.62,31.08Z"/><path class="f" d="M236.55,100.52l.4.51a2.12,2.12,0,0,1-.72,3.42,7.53,7.53,0,0,1-4.71.45,11.15,11.15,0,0,1-5.21-2,6.4,6.4,0,0,1-.5-.41c-.87-.84-1.53-1.78-1.14-3.05a2.65,2.65,0,0,1,2.57-1.82c1.16-.11,2.22,0,3.42,0,0,.42,0,.7,0,.93h-1.94c-1.37,0-2.37.63-2.59,1.46s.24,1.72,1.47,2.49a9.6,9.6,0,0,0,6.25,1.41,3.23,3.23,0,0,0,1-.28,1.65,1.65,0,0,0,.72-2.77c-.32-.4-.78-.68-1.13-1.06a7.35,7.35,0,0,1-.65-1,4.87,4.87,0,0,1,.76.06c2.89.87,5.77,1.76,8.67,2.61.46.14.66.32.62.85-.13,1.48-.19,3-.28,4.54l-1.67-.35c.09-1.25.15-2.47.26-3.68a.81.81,0,0,0-.57-1l-.13,0c-1.6-.44-3.18-.94-4.77-1.42h-.19Z"/><path class="f" d="M235.76,78.33c-.56-.46-.95-.74-1.29-1.08-1.33-1.28-1-2.78.72-3.42a8.31,8.31,0,0,1,4.2-.18,10.4,10.4,0,0,1,4.83,1.82,4.9,4.9,0,0,1,1.09,1.09,2,2,0,0,1-.28,2.77,1.84,1.84,0,0,1-.83.4,6,6,0,0,1-1.92.28,31.89,31.89,0,0,1-11.92-2.43A7.84,7.84,0,0,1,228,76,2,2,0,0,1,229,72.6a21.36,21.36,0,0,1,3.29-.26c0,.44,0,.67,0,.9l-.28.08a12.09,12.09,0,0,0-2.25.23,1.19,1.19,0,0,0-.51,2.11,4.74,4.74,0,0,0,1.16.88A17.33,17.33,0,0,0,235.76,78.33Zm5.62,1,0-.16a11.21,11.21,0,0,0,1.3-.11c.68-.15,1.33-.4,1.52-1.18a1.66,1.66,0,0,0-.77-1.75,4.67,4.67,0,0,0-.88-.59,9.81,9.81,0,0,0-5.53-1.05c-.83.08-1.7.24-1.94,1.2s.47,1.54,1.18,2a4,4,0,0,0,1.08.56C238.71,78.63,240,79,241.38,79.3Z"/><path class="f" d="M239.59,90.77a11.1,11.1,0,0,1,5.25,2.15,2.54,2.54,0,0,1,1,2.83,2.47,2.47,0,0,1-2.42,1.63,10.91,10.91,0,0,1-8.75-3.25c-.91-.89-1.73-1.88-2.65-2.77a6.43,6.43,0,0,0-3-1.82c-.18,1.76-.36,3.45-.55,5.27l-1.6-.25c.22-2.13.43-4.2.66-6.38.31.06.56.08.81.14a10.88,10.88,0,0,1,5.08,2.84c1,1,2,2,3,3a8,8,0,0,0,5.79,2.24,3.51,3.51,0,0,0,1.19-.24,1.45,1.45,0,0,0,.59-2.53,6.73,6.73,0,0,0-3.85-1.8C239.44,91.7,239.3,91.45,239.59,90.77Z"/><path class="f" d="M231.43,65.16c-.18,1.71-.33,3.2-.51,4.78l-1.52-.23c.2-1.88.39-3.73.59-5.66a9.2,9.2,0,0,1,4.52,1.84c1.13.9,2.17,1.91,3.21,2.91A8.34,8.34,0,0,0,243,71.3a5.36,5.36,0,0,0,2-.22,1.24,1.24,0,0,0,.48-2.24,6.88,6.88,0,0,0-3.62-1.57c-.5-.1-.72-.32-.46-.92a9.43,9.43,0,0,1,5.23,2.15,2,2,0,0,1-1,3.55,9.14,9.14,0,0,1-7-1.32,28,28,0,0,1-3.19-2.65c-.81-.69-1.57-1.44-2.41-2.08A10.74,10.74,0,0,0,231.43,65.16Z"/><path class="f" d="M234.4,58c-.62,0-1.25,0-1.87,0a4.21,4.21,0,0,0-1.4.37,1.19,1.19,0,0,0-.35,2,5.44,5.44,0,0,0,3.3,1.67,19.91,19.91,0,0,0,3.78.17,1.5,1.5,0,0,0,1.49-1.09c.19-.79-.31-1.29-.84-1.75a7.75,7.75,0,0,1-.66-.46,2.84,2.84,0,0,1-.35-.61l.15-.2,8.81,2.39c-.09,1.4-.17,2.75-.27,4.19l-1.48-.21c.07-1.21.14-2.39.21-3.67l-5.15-1.43.27.4c1.17,1.35.87,2.73-.87,3.14A10.43,10.43,0,0,1,230,61a2,2,0,0,1-.88-2.21,2,2,0,0,1,1.79-1.47,21,21,0,0,1,3.17-.09c.18,0,.37.36.55.55Z"/><path class="f" d="M234.23,53.48c.13-1.22.26-2.35.4-3.64a10.32,10.32,0,0,1,1.9.54c3.33,1.69,6.63,3.43,9.93,5.17.26.14.4.47.61.72l-.2.24-11.32-2c-.07.42-.13.76-.19,1.09-1.23,0-1.23,0-1.27-1.35-1.18-.22-2.38-.41-3.56-.67-.21,0-.36-.35-.54-.51l.19-.23Zm1.63-2.67c-.1.93-.15,1.67-.25,2.39-.07.46.12.62.55.68.89.12,1.76.31,2.65.46l5.18.92.06-.18Z"/><path class="f" d="M245,83.19c-.13,2.06-.25,4-.39,6.14a6.5,6.5,0,0,1-1.82-.57,45.55,45.55,0,0,0-15.5-6.7A2.85,2.85,0,0,1,227,82v-.9a44.15,44.15,0,0,1,16.1,7c.12-1.76.25-3.4.37-5.11Z"/><path class="a" d="M107.63,59.88a18.5,18.5,0,0,1-5,10.19,4.16,4.16,0,0,1-2.29,1.06,1.9,1.9,0,0,1-2.33-2,11.64,11.64,0,0,1,.39-3.22,17.6,17.6,0,0,1,3.22-6.55,8.85,8.85,0,0,1,2.54-2.13C106.06,56.21,107.65,57.29,107.63,59.88Z"/><path class="a" d="M152.84,48.86c-2.11,0-3.62-1.29-3.64-3.15a4.37,4.37,0,0,1,4.3-4.44h.06c2.18,0,3.69,1.28,3.7,3.16A4.49,4.49,0,0,1,152.84,48.86Z"/><path class="a" d="M192,50.34,184.42,49a3.75,3.75,0,0,1,4-1.78A3.88,3.88,0,0,1,192,50.34Z"/><path class="a" d="M174.61,47.19l-7.43-1.35c.55-1.25,2.38-2,4.2-1.73A3.49,3.49,0,0,1,174.61,47.19Z"/><path class="a" d="M133,39.64l-7.18-1.31a4.57,4.57,0,0,1,5.08-1.46A2.75,2.75,0,0,1,133,39.64Z"/><path class="a" d="M75.34,34.25c-2.54,0-3.63-1.84-2.39-4.06a5.29,5.29,0,0,1,5.77-2.71,2.25,2.25,0,0,1,1.8,2.62,1.64,1.64,0,0,1-.1.38A5.48,5.48,0,0,1,75.34,34.25Z"/><path class="g" d="M60.9,29.17l-.11.07v-.17Z"/><path class="g" d="M236.55,100.52l-.09-.14h.19A.71.71,0,0,1,236.55,100.52Z"/><path class="a" d="M241.38,79.3c-1.34-.34-2.67-.67-4-1a3.48,3.48,0,0,1-1.08-.56c-.71-.51-1.42-1-1.18-2s1.11-1.11,1.94-1.2a9.89,9.89,0,0,1,5.53,1.05,5.2,5.2,0,0,1,.88.59,1.68,1.68,0,0,1,.77,1.76c-.19.77-.84,1-1.52,1.18a11.21,11.21,0,0,1-1.3.11Z"/><path class="a" d="M235.88,50.81l8.2,4.27-.06.18-5.21-.94c-.89-.15-1.76-.34-2.65-.46-.43-.06-.62-.22-.55-.68C235.71,52.48,235.76,51.74,235.88,50.81Z"/></svg>